<?xml version="1.0" encoding="UTF-8" standalone="no"?>
<svg
   xmlns:dc="http://purl.org/dc/elements/1.1/"
   xmlns:cc="http://creativecommons.org/ns#"
   xmlns:rdf="http://www.w3.org/1999/02/22-rdf-syntax-ns#"
   xmlns:svg="http://www.w3.org/2000/svg"
   xmlns="http://www.w3.org/2000/svg"
   id="Layer_1"
   data-name="Layer 1"
   viewBox="0 0 512 512"
   version="1.1">
  <metadata
     id="metadata13">
    <rdf:RDF>
      <cc:Work
         rdf:about="">
        <dc:format>image/svg+xml</dc:format>
        <dc:type
           rdf:resource="http://purl.org/dc/dcmitype/StillImage" />
        <dc:title>rewind1-glyph</dc:title>
      </cc:Work>
    </rdf:RDF>
  </metadata>
  <defs
     id="defs11" />
  <title
     id="title2">rewind1-glyph</title>
  <path
     d="m 23.33298,59.7 c -13.09,0 -23.33,10.63 -23.33,24.2 v 344.22 c 0,13.57 10.25,24.19 23.34,24.19 a -25.26,-25.26 0 0 0 12.58,-3.46 l 259.89,-172.1 a -23.53,-23.53 0 0 0 0,-41.47 l -259.9,-172.11 a -25.24,-25.24 0 0 0 -12.58,-3.46 z"
     fill="#434040"
     id="path4" />
  <path
     d="m 227.12298,59.7 c -13.09,0 -23.33,10.63 -23.33,24.2 v 344.22 c 0,13.57 10.25,24.19 23.34,24.19 a -25.26,-25.26 0 0 0 12.58,-3.46 l 259.88,-172.1 a -23.53,-23.53 0 0 0 0,-41.47 l -259.89,-172.12 a -25.24,-25.24 0 0 0 -12.58,-3.46 z"
     fill="#434040"
     id="path6" />
</svg>
